<?xml version="1.0" encoding="UTF-8"?>
<svg version="1.1" xmlns="http://www.w3.org/2000/svg" width="80" height="80">
<path d="M0 0 C-1.57588004 3.3247945 -3.2817149 5.51631617 -5.9140625 8.109375 C-6.67460938 8.86347656 -7.43515625 9.61757813 -8.21875 10.39453125 C-9.0128125 11.17183594 -9.806875 11.94914062 -10.625 12.75 C-11.42679688 13.54277344 -12.22859375 14.33554687 -13.0546875 15.15234375 C-15.03202846 17.10614493 -17.01388909 19.05512103 -19 21 C-17.51346494 24.46629835 -15.54277649 26.69022036 -12.8671875 29.328125 C-12.06152344 30.12734375 -11.25585938 30.9265625 -10.42578125 31.75 C-9.58402344 32.575 -8.74226563 33.4 -7.875 34.25 C-7.02550781 35.09046875 -6.17601562 35.9309375 -5.30078125 36.796875 C-3.20495077 38.86915683 -1.10459287 40.93662393 1 43 C0.12601562 43.98097656 -0.74796875 44.96195313 -1.6484375 45.97265625 C-3.92183455 48.59108715 -5.76839449 51.20740858 -7.5390625 54.18359375 C-11.22494312 59.59785352 -14.84335734 63.4776862 -21 66 C-35.25606612 68.60166094 -50.63117883 66.96385281 -65 66 C-63.38223883 62.57517293 -61.57656756 60.34309478 -58.8671875 57.671875 C-58.06152344 56.87265625 -57.25585938 56.0734375 -56.42578125 55.25 C-55.58402344 54.425 -54.74226563 53.6 -53.875 52.75 C-53.02550781 51.90953125 -52.17601562 51.0690625 -51.30078125 50.203125 C-49.20495077 48.13084317 -47.10459287 46.06337607 -45 44 C-49.23816537 38.93376232 -53.67408963 34.19961931 -58.375 29.5625 C-59.01566406 28.92634766 -59.65632813 28.29019531 -60.31640625 27.63476562 C-61.87530879 26.08749668 -63.43651416 24.54263508 -65 23 C-51.28872119 -5.52660375 -27.49422347 -2.21800026 0 0 Z M-43 22 C-43 28.93 -43 35.86 -43 43 C-36.07 43 -29.14 43 -22 43 C-22 36.07 -22 29.14 -22 22 C-28.93 22 -35.86 22 -43 22 Z " fill="#FFFFFF" transform="translate(73,8)"/>
</svg>
